# xmcd
# 
# Track frame offsets:
#     150
#     36827
#     69324
#     109655
#     133789
#     170623
#     195253
#     220583
#     246375
#     283673
#     308534
# 
# Disc length: 4630
# 
# Revision: 1
# Processed by: cddbd v1.5.2PL0 Copyright (c) Steve Scherf et al.
# Submitted via: fre:ac v1.1beta1pre5
# 
DISCID=9812140b
DTITLE=Porcupine Tree - Anesthetize - Live in Tilburg - Oct 2008 [CD 2)
DYEAR=2008
DGENRE=Rock progressif
TTITLE0=What Happens Now ?
TTITLE1=Normal
TTITLE2=Dark Matter
TTITLE3=Drown with Me
TTITLE4=Cheating the Polygraph
TTITLE5=Half-Light
TTITLE6=Sever
TTITLE7=Wedding Nails
TTITLE8=Strip the Soul - Dot Three
TTITLE9=Sleep of No Dreaming
TTITLE10=Halo
EXTD=
EXTT0=
EXTT1=
EXTT2=
EXTT3=
EXTT4=
EXTT5=
EXTT6=
EXTT7=
EXTT8=
EXTT9=
EXTT10=
PLAYORDER=
